#!OML:ASF E:/inclinewalkrobotboard/Project1/Captureday1/Session1/subject1.ASF
:FULLY-SPECIFIED
:DEGREES
76
root 0 0 0 1.0393162812826076 -3.672653754474805 1.8303266151015976
lowerback 11.978642996584368 0.8494786690311276 -0.06280934166908825
upperback -4.230478351629458 1.0787404131600347 -0.5427647961059887
thorax -11.341317022801 0.4937858222815998 -0.7840594715730824
lowerneck -5.779748022278849 1.4864050983201338 4.565048978735265
upperneck 18.03424227962386 2.9414706984373824 -8.344344771847531
head 6.588986217003438 1.0740895703583053 -3.224914244439422
rclavicle 2.0735413121596016E-16 -2.03469458821412E-15
rhumerus 19.88764521659268 14.34890895512461 -47.7377825674416
rradius 72.23150237649268
rwrist 27.129732375106304
rhand -34.62829273803343 -57.103882204993084
rfingers 7.125020000000035
rthumb -7.78137062413236 -87.15840079144233
lclavicle -1.1064060297224448E-16 -4.50435032031128E-16
lhumerus 21.0295690280486 -12.45544978663106 45.301497357188914
lradius 70.02926036794388
lwrist -22.26473757177875
lhand -44.78266054793638 -70.24342199474535
lfingers 7.125020000000026
lthumb -17.57076652531012 -40.92173554971701
rfemur -24.696781485443793 -2.3147193970812636 17.111227479110564
rtibia 54.508195277576704
rfoot -28.994996380083194 -16.65465583066181
rtoes -18.49660402609054
lfemur -25.89969629327555 2.4394888276079136 -18.063606411181595
ltibia 53.19643122154
lfoot -30.79169993681287 -3.457024201809519
ltoes -20.87887233156697
77
root 0 0 0 1.0393639681954145 -3.672531841887869 1.8303672442420864
lowerback 11.978639669307979 0.8494925032819615 -0.0628527034174238
upperback -4.230510392832882 1.078750561250454 -0.5427920610914918
thorax -11.341349529428834 0.49379176640098055 -0.7840670572534212
lowerneck -5.7800232680081205 1.4864263982924337 4.565000576557531
upperneck 18.034397590503843 2.941483340027606 -8.344210815432133
head 6.589083273923787 1.0740974427084327 -3.2248642231395848
rclavicle 1.9901913267927587E-16 -2.0346049621458128E-15
rhumerus 19.886647628426555 14.34786444218702 -47.73777158167529
rradius 72.23073612058212
rwrist 27.13009601921189
rhand -34.628879258693146 -57.104490886537604
rfingers 7.125020000000035
rthumb -7.7819195406067205 -87.15904772603399
lclavicle -1.1849317193970326E-16 -4.493456375340448E-16
lhumerus 21.029478726454087 -12.455124678363843 45.30195322845806
lradius 70.02902845883618
lwrist -22.26456022798618
lhand -44.78298674388827 -70.24502250937644
lfingers 7.125020000000026
lthumb -17.57109125232832 -40.92331765825733
rfemur -24.697107794398605 -2.3148840491120093 17.11125324380024
rtibia 54.509124016618664
rfoot -28.994656924248755 -16.65460108942692
rtoes -18.496033171376023
lfemur -25.90041514706619 2.4395404460430266 -18.063741797050614
ltibia 53.197622299546225
lfoot -30.791073344839692 -3.4573848901017623
ltoes -20.87711265184927
78
root 0 0 0 1.0394378270103375 -3.672384787567216 1.8304071463696086
lowerback 11.978650584681791 0.8495048985110064 -0.0629039722045564
upperback -4.230546610277907 1.078758579791689 -0.5428206915382611
thorax -11.341396475428464 0.4937964913507289 -0.7840716012758349
lowerneck -5.780358456537062 1.486441532968367 4.564921292344503
upperneck 18.034566462668607 2.9414855622005565 -8.344030627220482
head 6.589195610483678 1.0740999347183584 -3.2247948797698003
rclavicle 1.9520532292956777E-16 -2.0345677424994958E-15
rhumerus 19.885743222826903 14.34697324603686 -47.73797950826733
rradius 72.23007540787088
rwrist 27.13028448956748
rhand -34.62960144114689 -57.105151512328334
rfingers 7.125020000000035
rthumb -7.782612109385353 -87.15971014992091
lclavicle -1.2230212448352833E-16 -4.486545381737268E-16
lhumerus 21.029246264867187 -12.454707862175917 45.302460479736474
lradius 70.0287166003122
lwrist -22.264389923289635
lhand -44.783260919239765 -70.24647211029944
lfingers 7.125020000000026
lthumb -17.571351063901425 -40.92481100369787
rfemur -24.697250119235797 -2.3149244242338205 17.111218895775572
rtibia 54.50937259253103
rfoot -28.994384827774546 -16.654631703207905
rtoes -18.495668431579308
lfemur -25.901248370860095 2.439482358922418 -18.063873257774183
ltibia 53.198187176112626
lfoot -30.790927013210975 -3.457450164981595
ltoes -20.87528576563307
79
root 0 0 0 1.0394822324208506 -3.6723031905009274 1.830434059357073
lowerback 11.978650883579935 0.8495145933947295 -0.06293697721053498
upperback -4.230572303326666 1.0787657105663533 -0.5428392741455759
thorax -11.341424998749124 0.49380062539543157 -0.7840749690560781
lowerneck -5.780564221666174 1.4864553369111018 4.5648784887744895
upperneck 18.034683299245906 2.9414931461203535 -8.34392513487401
head 6.589268685848604 1.0741046104409286 -3.2247546190644707
rclavicle 1.9458470784865906E-16 -2.035020625954394E-15
rhumerus 19.88540327327312 14.346634826052334 -47.73809108055689
rradius 72.2298527049121
rwrist 27.13036524401616
rhand -34.629977608432554 -57.10557684910901
rfingers 7.125020000000035
rthumb -7.78297203604017 -87.16013761846366
lclavicle -1.2283619619753866E-16 -4.490503112779237E-16
lhumerus 21.029107891360837 -12.454473562796167 45.302704811610795
lradius 70.02856964022172
lwrist -22.26434697280988
lhand -44.783395006794116 -70.24728295479747
lfingers 7.125020000000026
lthumb -17.571478551429756 -40.92564027901568
rfemur -24.697288115906176 -2.3149352489480353 17.111214188034623
rtibia 54.509429727807415
rfoot -28.994338533169763 -16.6546447992471
rtoes -18.495583579216184
lfemur -25.90157097514915 2.4394172144544575 -18.06394231352106
ltibia 53.19829358584219
lfoot -30.790950058290253 -3.4574644375925274
ltoes -20.874554362010198
80
root 0 0 0 1.039308920295168 -3.672754558837383 1.830252889175234
lowerback 11.97866543141134 0.8494565480682639 -0.06279046657804185
upperback -4.230451467656425 1.078721041559999 -0.5427343942695173
thorax -11.341322183470064 0.4937743021383347 -0.7840369639430923
lowerneck -5.779472394297119 1.4863846734437085 4.565044879206635
upperneck 18.03407327550104 2.941471596465552 -8.344411167679329
head 6.588888920646725 1.0740750278023994 -3.224925978329094
rclavicle 1.8396657669655925E-16 -2.0264657894237978E-15
rhumerus 19.886940249236304 14.348568579547202 -47.737110225454614
rradius 72.23048460207484
rwrist 27.129057222162494
rhand -34.62547898200152 -57.09926279888772
rfingers 7.125020000000035
rthumb -7.778544539013664 -87.15353694393035
lclavicle -1.3400410748678545E-16 -4.3867672105041016E-16
lhumerus 21.030544620925205 -12.456756441853107 45.301195110574746
lradius 70.02917521470742
lwrist -22.263860191751768
lhand -44.78211928864079 -70.23652254172742
lfingers 7.125020000000026
lthumb -17.570123099500478 -40.91515823908696
rfemur -24.69589872507097 -2.3136886822356386 17.11140654078478
rtibia 54.5025894800858
rfoot -28.995152109261213 -16.654431619989495
rtoes -18.494394830874295
lfemur -25.89763385370513 2.4391240120489845 -18.063292519881553
ltibia 53.19360443847478
lfoot -30.794902532246102 -3.4554314986639363
ltoes -20.88250655778466
81
root 0 0 0 1.039329042615256 -3.672630165456682 1.8303346006728545
lowerback 11.978642537921228 0.8494816349391501 -0.06281913056149854
upperback -4.230486190188792 1.0787426269633509 -0.5427703189286552
thorax -11.341325411655488 0.49378710314515456 -0.7840604989178261
lowerneck -5.779808410716324 1.4864095376142719 4.56503682871825
upperneck 18.034277622585147 2.941473480165461 -8.34431408975728
head 6.589007993524007 1.0740911955901151 -3.2249025421039743
rclavicle 2.0706551830565063E-16 -2.0347306249977637E-15
rhumerus 19.88754316660321 14.348809703025337 -47.73781501271899
rradius 72.23143231393712
rwrist 27.129752549345724
rhand -34.62839399751094 -57.10398774609136
rfingers 7.125020000000035
rthumb -7.781467253373322 -87.15850749661587
lclavicle -1.109460110226769E-16 -4.504235038274251E-16
lhumerus 21.029536646562008 -12.45539055478622 45.30156462410805
lradius 70.02922133632349
lwrist -22.26472081754331
lhand -44.782698018622725 -70.24363692369323
lfingers 7.125020000000026
lthumb -17.5708024893151 -40.92195362609664
rfemur -24.696785333575022 -2.3147193049106547 17.11122503243591
rtibia 54.508193649897656
rfoot -28.9949796160473 -16.654656591498743
rtoes -18.49659104407747
lfemur -25.899757557905836 2.4394631932429904 -18.063624556710334
ltibia 53.19642122367222
lfoot -30.791713299234456 -3.457034609082187
ltoes -20.878716802821668
